<?xml version="1.0" encoding="UTF-8"?>
<svg id="Layer_1" data-name="Layer 1" xmlns="http://www.w3.org/2000/svg" viewBox="0 0 283.58 288.53">
  <defs>
    <style>
      .cls-1 {
        fill: #ffd4c7;
      }

      .cls-1, .cls-2 {
        stroke-width: 0px;
      }

      .cls-2 {
        fill: #c7572e;
      }
    </style>
  </defs>
  <path class="cls-1" d="m282,142.25c-1.72,66.58-53.94,103.57-66.24,112.29-13.35,9.46-50.93,36.08-96.93,27.32-34.16-6.5-55.24-29.14-71.95-47.09-15.71-16.87-38.99-41.87-44.6-81.27C-3.57,112.42,11.16,65.19,46.27,36.55c27.28-22.25,57.24-25.42,77.26-27.55,20.13-2.14,58.11-6.16,94.93,16.03,38.46,23.19,64.8,68.44,63.54,117.22Z"/>
  <g>
    <path class="cls-2" d="m160,217.24c-12.79-.57-26.81-4.62-33.58-16.3-9.92-17.35-6.86-38.88,3.44-55.34,10.14-17.36,27.63-36.93,46.33-44.89,8.39-3.14,16.89-7.47,26-5.06,10.23,1.56,13.64,12.68,16.06,21.22,2.96,15.44,1.64,31.45-2.12,46.65-5.68,27.62-26.06,53.85-56.05,53.7h-.07Zm-18.71-47.63c-.1,2.7.1,5.38.65,7.99.49,2.32,2.16,4.5,3.42.7,3.17-9.55,6.21-19.28,10.98-28.18,1.94-3.61,3.94-7.08,5.82-10.73,1.46-2.57,3.6-5.77,4.59-8.41.42-1.17.62-2.16.36-2.93-.5-1.34-1.76-2.09-3.01-.99-11.14,9.85-22.2,26.68-22.81,42.56Z"/>
    <path class="cls-2" d="m63.93,151.29c-.95-25.95,15.74-51.07,30.39-71.38,2.58-4.33,6.3-9.43,12-8.51,10.83,3.2,20.73,10.05,28.52,18.12,3.83,4.27,7.26,8.94,10.45,13.69,2.62,3.65.83,8.61-1.48,12.42-24.36,24.68-35.33,44.88-26.05,80,.33,1.8,1.24,4.34.26,5.5-.45.56-1.41.7-2.17.73-6.37.33-12.8-.1-18.66-2.6-8.08-3.3-16.44-7.15-22.35-13.6-8.07-9.43-12.11-22.03-10.93-34.31v-.08Z"/>
  </g>
</svg>