<?xml version="1.0" encoding="utf-8"?>
<!-- Generator: Adobe Illustrator 28.0.0, SVG Export Plug-In . SVG Version: 6.00 Build 0)  -->
<svg version="1.1" id="Layer_1" xmlns="http://www.w3.org/2000/svg" xmlns:xlink="http://www.w3.org/1999/xlink" x="0px" y="0px"
	 viewBox="0 0 283.6 288.5" style="enable-background:new 0 0 283.6 288.5;" xml:space="preserve">
<style type="text/css">
	.st0{fill:#FFE299;}
	.st1{fill:#C7572E;}
</style>
<path class="st0" d="M80.2,273.5c33.6,15.9,74.7,16.9,109.2,3c30.5-12.2,51.8-39.3,68.1-66.4c3.9-6.4,7.7-12.9,11.5-19.3
	c33.8-57.5,4.3-124.5-46.3-161.3C195.6,9.7,163.2-1.7,129.2,3.7c-24.7,3.9-42.8,19.5-66.1,26.1c-8.9,2.5-17.4,6.1-24.8,11.8
	c-0.4,0.3-0.8,0.6-1.2,0.9C19.4,52.6,11.5,72.1,6.4,90.7c-3.5,12.6-5.4,25.8-5.8,39.1l0,0C-1.3,187.6,25.9,247.7,80.2,273.5z"/>
<path class="st1" d="M215.9,86.3c-1-3.7-2.9-5-6.6-5c-27.3,0.1-53.4,14.5-67.9,38c-1.9,3.2-3.5,2.4-4.7-0.7
	c-7.8-20-29-35.1-49.8-39.9c-2.7-0.7-5.7-0.3-8.1,1.1c-8.5,4.9-12.7,15.3-12.4,24.9v0.1c0,28.9,23.5,54.6,51.8,58.1
	c2.1,0.2,3.9,1.1,5,2.9c7.1,11.6,9.7,25.4,13.4,38.4c0.8,3.7,1.2,7.7,2.3,11.3c1.7,5.9,5,10.7,11.3,12.2c2.1,0.5,4.6,0.3,6.3-1.1
	c2-1.7,2.4-4.5,2.6-7c1.2-15.1-3.4-30.3-5.7-45.1c-0.3-2.1-2-6.8-0.5-8.5c0.8-0.8,2.9-0.7,4.4-0.9c11-1.5,21.9-3.7,30.5-11.1
	c9.4-8.1,14.7-19.6,20.3-30.3C214.2,112.3,219.4,99.3,215.9,86.3L215.9,86.3z M110.4,124c9.4,12.2,16.1,26.1,14.7,27
	c-1.1,0.8-4.7-3.7-5.3-4.3c-2.8-3.1-5.3-6.2-7.7-9.7c-4-5.8-8.1-11.7-12.1-17.5c-2.2-3.2-5.8-7.5-5.8-11.6
	C95.3,107.2,103.7,115.4,110.4,124L110.4,124z M158.8,137.1c-3.4,3.1-6.7,6.2-11,8.5c-0.8,0.5-5.3,2.9-5.9,2.1
	c-0.4-0.5,0.8-2,5.5-7.3c6.1-7,12.7-13.6,19.8-19.5c3.6-3,7.4-5.9,11.4-8.5c1.2-0.8,9-6.5,10.1-5.2c1.4,1.7-9.6,11.7-10.9,12.9
	c0,0.7-3.2,2.9-3.8,3.3l-4.3,3.8c-2.8,2.5-5.5,4.9-8.3,7.4C160.6,135.5,159.7,136.3,158.8,137.1L158.8,137.1z"/>
</svg>
