<?xml version="1.0" encoding="UTF-8"?>
<svg id="Layer_1" data-name="Layer 1" xmlns="http://www.w3.org/2000/svg" viewBox="0 0 283.58 288.53">
  <defs>
    <style>
      .cls-1 {
        fill: #d8e0c9;
      }

      .cls-1, .cls-2 {
        stroke-width: 0px;
      }

      .cls-2 {
        fill: #283a0e;
      }
    </style>
  </defs>
  <path class="cls-1" d="m203.65,275.61c-33.65,16.16-74.82,17.14-109.42,3.07-30.59-12.44-51.86-39.92-68.19-67.52-3.87-6.54-7.73-13.08-11.53-19.65C-19.36,133.01,10.16,64.92,60.86,27.54,88.16,7.41,120.53-4.11,154.62,1.35c24.69,3.96,42.82,19.79,66.24,26.54,8.95,2.58,17.42,6.19,24.79,12.05.38.31.78.62,1.21.87,17.76,10.32,25.63,30.11,30.79,49.03,3.5,12.82,5.44,26.22,5.85,39.75h0c1.77,58.75-25.4,119.87-79.85,146.02Z"/>
  <g>
    <path class="cls-2" d="m205.72,166.94c6.05-19.54,5.56-23.07-3.53-41.14-1.84-19.47-2.95-26.83-20.21-38.41-3.35-2.52-5.93-5.76-7.99-9.41-5.93-11.23-13.18.25-19.31,4.93-6.03,4.67-13.19,8-17.99,14.11-5.54,7.21-11.18,15.86-9.98,25.32,1.11,12.69-8.22,23.04-9.73,35.45-2.04,7.5.98,12.67,3,19.59,1.48,9.23,3.76,26.59-1.26,34.59-4.52,6.34-12.83,10.01-20.47,8.08-17.54-4.51-27.22-14.74-37.3-28.98-6.8-7.6-18.32-12.42-19.06-23.88-.66-6.92,2.76-13.01,3.5-19.72,1.38-15.82-1.82-24.15,7.1-39.47,5.27-9.17,14.4-15.68,18.9-25.36,4.83-19.27,16.44-18,32.86-23.42,14.09-6.9,16.3-17.19,35.03-15.79,16.61-2.6,24.9,8.94,38.37,15.55,26.26,10.25,31.31,7.51,44.01,35.4,22.29,31.27,12.31,33.12,18.95,65.67,5.67,19.61-11.79,14.6-11.11,29.7,1.62,13.24-3.08,16.5-11.9,25.24-6.35,6.15-11.01,13.69-16.4,20.62-8.5,13.76-47.74,14.71-41.84-7.65,8.33-30.15,23.76,4.28,37.44-33.11,4.63-8.78,6.9-18.31,8.9-27.93Z"/>
    <path class="cls-2" d="m179.95,204.94c-11.03,4.7-23.67-6.86-26.38,7.96-2.79,7.78-1.72,18.53-8.23,24-7.21,5.84-21.82-.98-26.05-7.65-1.8-5.78,6.86-13.39,8.88-19.02,10.38-23.55-6.2-42.5-1.79-58.77,2.9-7.27,10.28-12.42,12.28-20.22,1.25-4.35-.02-8.82-.23-13.22-.28-8.73,5.05-17.34,12.24-22.15,20.09-13.81,44.95,7.32,42.02,29.34,1.67,11.27,10.39,21.23,8.04,33.18-2.63,12.52-8.81,41.39-20.78,46.55Z"/>
  </g>
</svg>