<?xml version="1.0" encoding="UTF-8"?>
<svg id="Layer_1" data-name="Layer 1" xmlns="http://www.w3.org/2000/svg" viewBox="0 0 283.58 288.53">
  <defs>
    <style>
      .cls-1 {
        fill: #993700;
      }

      .cls-1, .cls-2 {
        stroke-width: 0px;
      }

      .cls-2 {
        fill: #ffc6aa;
      }
    </style>
  </defs>
  <path class="cls-2" d="m276.16,99.54C251.49,31.11,214.16,1.85,140.29,2.37c-15.72,1.53-33.71,2.76-51.55,5.17C35.01,13.85,9.64,71.3,2.47,119.36c-5.03,25.87,1.18,51.16,10.47,75.28,4.55,14.64,12.17,27.49,22.18,38.92,26.47,28.49,62.84,49.38,101.89,51.58,56.31,7.47,115.6-26.65,133.97-81.44,9.59-33.76,18.49-70.33,5.18-104.17Z"/>
  <path class="cls-1" d="m211.74,80.22c-.13,1.25-.36,2.49-.62,3.72-3.75,17.75-13.84,32.42-22.84,47.84-8.49,14.54-17.64,28.82-25.28,43.86-4.72,9.31-9.83,18.44-14.98,27.51-6.3,9.81-9.91,18.32-23.66,16.06-6.38-1.99-9.25-13.44-13.54-18.55-5.61-7.86-11.54-15.53-17.83-22.87-4.02-4.61-8.23-9.06-12.33-13.61-5.68-5.58-13.32-14.47-5.74-22.08,17.06-11.01,35.73,4.73,46.31,17.87,3.37,3.23,4.94,9.04,9.47,10.72,3.65,1.34,17.82-31.92,19.3-35.06,10.63-22.48,22.74-43.78,42.36-59.66,3.97-3.21,9.36-8.99,14.96-6.31,2.4,1.15,3.88,3.73,4.33,6.35.24,1.39.23,2.8.08,4.21Z"/>
</svg>