<?xml version="1.0" encoding="UTF-8"?>
<svg id="Layer_1" data-name="Layer 1" xmlns="http://www.w3.org/2000/svg" viewBox="0 0 283.58 288.53">
  <defs>
    <style>
      .cls-1 {
        fill: #c63434;
      }

      .cls-1, .cls-2 {
        stroke-width: 0px;
      }

      .cls-2 {
        fill: #f9cdcd;
      }
    </style>
  </defs>
  <path class="cls-2" d="m281.84,159.03c-5.07,27.89-12,55.66-28.47,79.09-34.92,49.07-105.42,63.17-158.61,38.53C27.37,239.55-24.9,151.68,13.96,75.94,30.27,48.63,45.86,14.05,79.17,5.84c82.68-27.89,220.5,57.14,202.67,153.19Z"/>
  <g>
    <path class="cls-1" d="m135.35,68.82c7.12,4.53-.22,12.89,15.42,6.25,18.89-8.44,33.34,1.51,46.35,14.92,3.56,3.52,7.46,7.2,8.71,12.21,3.2,14.17-14.03,18.96-23.79,24.12-23.27,10.53-44.06-6.42-45.09-30.51-.79-13.84-5.76-5.32-6.65,2.66-2.06,14.17-11.59,26.41-23.16,34.31-11.2,7.21-23.5,12.38-35.62,17.64-8.43,3.35-12.62-.47-11.11-9.31,4.58-29.38,26.19-63.2,58.99-62.95,11.89,1.79,9.25-6.98,15.96-9.33Zm-7.41,18.41c.01-6.08-54.05,34.4-39.61,31.79,7.98-4.5,40.14-23.11,39.61-31.79Z"/>
    <path class="cls-1" d="m167.84,176.85c0,11.99-4.93,24.03-13.3,32.66-44.68,39.33-73.64-45.81-26.27-73.36,24.75-10.99,39.39,20.23,39.57,40.7Z"/>
    <path class="cls-1" d="m223.45,168.03c.04,11.6-10.49,19.21-21.44,19.03-17.27-.54-30.9-22.54-30.36-38.5,1.73-8.78,10.63-15.09,19.05-17.15,19.93-4.15,33.57,19.13,32.75,36.62Z"/>
  </g>
</svg>